# xmcd CD database file
# Copyright (C) 1997 Ti Kan
# 
# Track frame offsets:
#     150
#     13162
#     25762
#     38350
#     53272
#     66097
#     79490
#     93210
#     107722
#     120757
#     135437
#     145142
#     158490
#     170390
#     181485
#     195570
#     210012
#     224455
#     237615
#     250587
#     262400
#     277787
# 
# Disc length: 3872 seconds
# 
# Revision: 1
# Processed by: cddbd v1.4b41PL1 Copyright (c) Steve Scherf et al.
# Submitted via: DiscPlay 4.0.3
# 
DISCID=1c0f1e16
DTITLE=Bo Carter - Complete Recorded Works - Vol. 4
DYEAR=1900
DGENRE=
TTITLE0=It's Too Wet
TTITLE1=Dinner Blues
TTITLE2=Ain't Nobody Got It
TTITLE3=Cigarette Blues
TTITLE4=Pussy Cat Blues
TTITLE5=The Ins And Outs Of My Girl
TTITLE6=All Around Man - Part 2
TTITLE7=Bo Carter's Advice
TTITLE8=Doubled Up In A Knot
TTITLE9=Worried G Blues
TTITLE10=Your Biscuits Are Not Big Enough For Me
TTITLE11=Don't Mash My Digger So Deep
TTITLE12=Flea On Me
TTITLE13=Got To Work Somewhere
TTITLE14=Sue Cow
TTITLE15=Shake 'Em On Down
TTITLE16=A Girl For Every Day Of The Week
TTITLE17=Trouble In Blues
TTITLE18=World In A Jug
TTITLE19=Who's Been Here?
TTITLE20=Whiskey Blues
TTITLE21=Shoo That Chicken
EXTD=
EXTT0=
EXTT1=
EXTT2=
EXTT3=
EXTT4=
EXTT5=
EXTT6=
EXTT7=
EXTT8=
EXTT9=
EXTT10=
EXTT11=
EXTT12=
EXTT13=
EXTT14=
EXTT15=
EXTT16=
EXTT17=
EXTT18=
EXTT19=
EXTT20=
EXTT21=
PLAYORDER=
